<mxfile host="65bd71144e">
    <diagram id="d2fh7UBhQg8kpc4wbfIJ" name="Page-1">
        <mxGraphModel dx="869" dy="633" grid="1" gridSize="10" guides="1" tooltips="1" connect="1" arrows="1" fold="1" page="1" pageScale="1" pageWidth="850" pageHeight="1100" math="0" shadow="0">
            <root>
                <mxCell id="0"/>
                <mxCell id="1" parent="0"/>
                <mxCell id="12" value="" style="edgeStyle=none;html=1;" edge="1" parent="1" source="2" target="11">
                    <mxGeometry relative="1" as="geometry"/>
                </mxCell>
                <mxCell id="2" value="&lt;font size=&quot;1&quot; style=&quot;&quot;&gt;&lt;b style=&quot;font-size: 22px;&quot;&gt;Portfolio&lt;/b&gt;&lt;/font&gt;" style="rounded=0;whiteSpace=wrap;html=1;fillColor=#1ba1e2;fontColor=#ffffff;strokeColor=#006EAF;" parent="1" vertex="1">
                    <mxGeometry x="540" y="140" width="285" height="170" as="geometry"/>
                </mxCell>
                <mxCell id="10" style="edgeStyle=none;html=1;entryX=0.035;entryY=0.529;entryDx=0;entryDy=0;entryPerimeter=0;" edge="1" parent="1" source="4" target="2">
                    <mxGeometry relative="1" as="geometry"/>
                </mxCell>
                <mxCell id="4" value="&lt;ul&gt;&lt;li&gt;Home&lt;/li&gt;&lt;li&gt;About&lt;/li&gt;&lt;li&gt;Projects&lt;/li&gt;&lt;li&gt;Skills&lt;/li&gt;&lt;li&gt;Certificados&lt;/li&gt;&lt;li&gt;Blog/Aprendizado&lt;/li&gt;&lt;li&gt;Contato&lt;/li&gt;&lt;/ul&gt;" style="text;strokeColor=#BD7000;fillColor=#f0a30a;html=1;whiteSpace=wrap;verticalAlign=middle;overflow=hidden;fontSize=22;fontColor=#000000;" parent="1" vertex="1">
                    <mxGeometry x="230" y="85" width="220" height="280" as="geometry"/>
                </mxCell>
                <mxCell id="16" value="" style="edgeStyle=none;html=1;" edge="1" parent="1" source="11" target="15">
                    <mxGeometry relative="1" as="geometry"/>
                </mxCell>
                <mxCell id="11" value="Home" style="rounded=0;whiteSpace=wrap;html=1;fillColor=#1ba1e2;fontColor=#ffffff;strokeColor=#006EAF;" vertex="1" parent="1">
                    <mxGeometry x="572.5" y="370" width="220" height="80" as="geometry"/>
                </mxCell>
                <mxCell id="14" style="edgeStyle=none;html=1;entryX=1;entryY=0.5;entryDx=0;entryDy=0;" edge="1" parent="1" source="13" target="11">
                    <mxGeometry relative="1" as="geometry"/>
                </mxCell>
                <mxCell id="13" value="&lt;ul&gt;&lt;li&gt;Saudação principal&lt;/li&gt;&lt;li&gt;Subtitulo&lt;/li&gt;&lt;li&gt;Foto ou Avatar&lt;/li&gt;&lt;li&gt;Botão de ação&lt;/li&gt;&lt;li&gt;Links rápidos para redes profissionais&lt;/li&gt;&lt;/ul&gt;" style="text;strokeColor=none;fillColor=none;html=1;whiteSpace=wrap;verticalAlign=middle;overflow=hidden;" vertex="1" parent="1">
                    <mxGeometry x="840" y="345" width="250" height="130" as="geometry"/>
                </mxCell>
                <mxCell id="21" value="" style="edgeStyle=none;html=1;" edge="1" parent="1" source="15" target="20">
                    <mxGeometry relative="1" as="geometry"/>
                </mxCell>
                <mxCell id="15" value="About" style="rounded=0;whiteSpace=wrap;html=1;fillColor=#1ba1e2;fontColor=#ffffff;strokeColor=#006EAF;" vertex="1" parent="1">
                    <mxGeometry x="572.5" y="530" width="220" height="80" as="geometry"/>
                </mxCell>
                <mxCell id="19" style="edgeStyle=none;html=1;entryX=1;entryY=0.5;entryDx=0;entryDy=0;" edge="1" parent="1" source="18" target="15">
                    <mxGeometry relative="1" as="geometry"/>
                </mxCell>
                <mxCell id="18" value="&lt;ul&gt;&lt;li&gt;Nome completo&lt;/li&gt;&lt;li&gt;Idade&lt;/li&gt;&lt;li&gt;Onde mora&lt;/li&gt;&lt;li&gt;Curso&lt;/li&gt;&lt;li&gt;Objetivos profissional&amp;nbsp;&lt;/li&gt;&lt;li&gt;qualidades pessoais&lt;/li&gt;&lt;li&gt;frase de impacto&lt;/li&gt;&lt;/ul&gt;" style="text;strokeColor=none;fillColor=none;html=1;whiteSpace=wrap;verticalAlign=middle;overflow=hidden;" vertex="1" parent="1">
                    <mxGeometry x="840" y="490" width="280" height="160" as="geometry"/>
                </mxCell>
                <mxCell id="24" value="" style="edgeStyle=none;html=1;" edge="1" parent="1" source="20" target="23">
                    <mxGeometry relative="1" as="geometry"/>
                </mxCell>
                <mxCell id="20" value="Skills" style="rounded=0;whiteSpace=wrap;html=1;fillColor=#1ba1e2;fontColor=#ffffff;strokeColor=#006EAF;" vertex="1" parent="1">
                    <mxGeometry x="572.5" y="690" width="220" height="80" as="geometry"/>
                </mxCell>
                <mxCell id="26" style="edgeStyle=none;html=1;entryX=1;entryY=0.5;entryDx=0;entryDy=0;" edge="1" parent="1" source="22" target="20">
                    <mxGeometry relative="1" as="geometry"/>
                </mxCell>
                <mxCell id="22" value="&lt;ul&gt;&lt;li&gt;Hard Skills&lt;/li&gt;&lt;li&gt;Soft Skills&lt;/li&gt;&lt;/ul&gt;" style="text;strokeColor=none;fillColor=none;html=1;whiteSpace=wrap;verticalAlign=middle;overflow=hidden;" vertex="1" parent="1">
                    <mxGeometry x="850" y="690" width="100" height="80" as="geometry"/>
                </mxCell>
                <mxCell id="30" value="" style="edgeStyle=none;html=1;" edge="1" parent="1" source="23" target="29">
                    <mxGeometry relative="1" as="geometry"/>
                </mxCell>
                <mxCell id="23" value="Certificados" style="rounded=0;whiteSpace=wrap;html=1;fillColor=#1ba1e2;fontColor=#ffffff;strokeColor=#006EAF;" vertex="1" parent="1">
                    <mxGeometry x="572.5" y="850" width="220" height="80" as="geometry"/>
                </mxCell>
                <mxCell id="27" style="edgeStyle=none;html=1;entryX=1;entryY=0.5;entryDx=0;entryDy=0;" edge="1" parent="1" source="25" target="23">
                    <mxGeometry relative="1" as="geometry"/>
                </mxCell>
                <mxCell id="25" value="&lt;ul&gt;&lt;li&gt;Nome do curso&lt;/li&gt;&lt;li&gt;Plataforma&lt;/li&gt;&lt;li&gt;Data de conclusão&lt;/li&gt;&lt;li&gt;Link ou imagem do certificado&lt;/li&gt;&lt;/ul&gt;" style="text;strokeColor=none;fillColor=none;html=1;whiteSpace=wrap;verticalAlign=middle;overflow=hidden;" vertex="1" parent="1">
                    <mxGeometry x="850" y="825" width="230" height="130" as="geometry"/>
                </mxCell>
                <mxCell id="29" value="Blog" style="rounded=0;whiteSpace=wrap;html=1;fillColor=#1ba1e2;fontColor=#ffffff;strokeColor=#006EAF;" vertex="1" parent="1">
                    <mxGeometry x="572.5" y="1010" width="220" height="80" as="geometry"/>
                </mxCell>
                <mxCell id="32" style="edgeStyle=none;html=1;" edge="1" parent="1" source="31" target="29">
                    <mxGeometry relative="1" as="geometry"/>
                </mxCell>
                <mxCell id="31" value="&lt;ul&gt;&lt;li&gt;Explicaçãoes simples temas que você estudou&lt;/li&gt;&lt;li&gt;Dicas para Iniciantes&lt;/li&gt;&lt;li&gt;Resumos semanais dos seus aprendizados&lt;/li&gt;&lt;li&gt;Problemas que resolvi&amp;nbsp;&lt;/li&gt;&lt;li&gt;Tutoriais curtos ou mini artigos&amp;nbsp;&lt;/li&gt;&lt;/ul&gt;" style="text;strokeColor=none;fillColor=none;html=1;whiteSpace=wrap;verticalAlign=middle;overflow=hidden;" vertex="1" parent="1">
                    <mxGeometry x="835" y="970" width="305" height="160" as="geometry"/>
                </mxCell>
                <mxCell id="33" value="Contato" style="rounded=0;whiteSpace=wrap;html=1;fillColor=#1ba1e2;fontColor=#ffffff;strokeColor=#006EAF;" vertex="1" parent="1">
                    <mxGeometry x="572.5" y="1170" width="220" height="80" as="geometry"/>
                </mxCell>
                <mxCell id="35" style="edgeStyle=none;html=1;entryX=1;entryY=0.5;entryDx=0;entryDy=0;" edge="1" parent="1" source="34" target="33">
                    <mxGeometry relative="1" as="geometry"/>
                </mxCell>
                <mxCell id="34" value="&lt;ul&gt;&lt;li&gt;E-mail&lt;/li&gt;&lt;li&gt;WhatsApp&lt;/li&gt;&lt;li&gt;Formulário Simples&lt;/li&gt;&lt;/ul&gt;" style="text;strokeColor=none;fillColor=none;html=1;whiteSpace=wrap;verticalAlign=middle;overflow=hidden;" vertex="1" parent="1">
                    <mxGeometry x="850" y="1160" width="160" height="100" as="geometry"/>
                </mxCell>
            </root>
        </mxGraphModel>
    </diagram>
</mxfile>